<svg xmlns="http://www.w3.org/2000/svg" viewBox="0 0 1920 704" style="enable-background:new 0 0 1920 704" xml:space="preserve"><style>.st2{opacity:.51;fill:#dae8ea}</style><g id="done" opacity=".7"><path d="M1884.3 167.7c-15-1.7-30.6 1.4-44.4 9.9-23.6 14.5-35.4 40.8-32.7 66.7-12.6-4.1-26.9-2.9-39 4.6-8 4.9-14 11.9-17.7 19.9-22.8-19.5-56.4-23.1-83.3-6.5-18.5 11.4-29.9 30-32.9 50-27.2-14.8-60.5-16.7-90-3.6-.7-7.2-2.9-14.3-7-20.9-14.3-23.2-44.7-30.4-67.8-16.1-20 12.4-28 36.6-20.7 57.9-15-32.6-57.7-47.2-97.9-25.4-.7-22.1-30.7-49.9-69.2-22.3-.3-.5-.6-1.1-.9-1.6-35.8-58.1-111.9-76.1-170-40.3-58 35.8-76.1 112-40.3 170.1 7.5 12.1 16.7 22.5 27.2 31-.1 1-.2 2-.2 3v.4c-14.8 1-27.5 9.5-34.3 21.8-8-21.2-28.5-36.3-52.5-36.3-17.3 0-32.7 7.8-43 20-9.2-23.4-32.1-40-58.8-40-28.9 0-53.3 19.4-60.8 45.8-9.1-7.2-20.6-11.5-33.2-11.5-21.4 0-39.9 12.5-48.6 30.6-6.6-7.8-16.5-12.8-27.5-12.8-7.2 0-14 2.2-19.7 5.9-7.1-22-27.8-38-52.2-38-12.7 0-24.3 4.3-33.6 11.5-6.7-5.3-14.7-9.1-23.4-10.8-11.6-10.6-26.3-17.8-42.7-20 2.5-5 3.9-10.6 3.9-16.6 0-21-17.1-38-38.1-38-14.9 0-27.7 8.5-34 20.9-1.4-.3-2.9-.4-4.4-.4-7.6-39.4-38.4-68.3-92.2-68.5 1.8-7.4 2.8-15.1 2.8-23 0-52.7-42.8-95.4-95.6-95.4S214 232.4 214 285.1c0 26.5 10.8 50.4 28.3 67.7-17.4-.5-28 4.2-38.9 9.4-7.4-2.8-15.5-4.4-23.9-4.4-28.1 0-52.2 17.1-62.4 41.4-8.1 5.7-13.5 15.1-13.5 25.8v.4c-14.8 1-27.5 9.5-34.3 21.8-8-21.2-28.5-36.3-52.5-36.3-6.9 0-10.6.3-16.7 2.6V704h1920V75.9c-31.9 19.7-45.5 57.5-35.8 91.8z" style="fill-rule:evenodd;clip-rule:evenodd;fill:#9ed5dd"/><path d="M1893.1 405.1c0 6.5.8 12.9 2.3 19-13-10.2-33.3-6.3-39.7 8.2-55.7-21.5-98.8 8.4-99.8 62.8v.4c-14.8 1-27.5 9.5-34.3 21.8-8-21.2-28.5-36.3-52.5-36.3-17.3 0-32.7 7.8-43 20-9.2-23.4-32.1-40-58.8-40-28.9 0-53.3 19.4-60.8 45.8-9.1-7.2-20.6-11.5-33.2-11.5-21.4 0-39.9 12.5-48.6 30.6-6.6-7.8-16.5-12.8-27.5-12.8-7.2 0-14 2.2-19.7 5.9-7.1-22-27.8-38-52.2-38-12.7 0-24.3 4.3-33.6 11.5-6.7-5.3-14.7-9.1-23.4-10.8-11.6-10.6-26.3-17.8-42.7-20 2.5-5 3.9-10.6 3.9-16.6 0-21-17.1-38-38.1-38-14.9 0-27.7 8.5-34 20.9-1.4-.3-2.9-.4-4.4-.4-7.6-39.4-38.4-68.3-92.2-68.5 1.8-7.4 2.8-15.1 2.8-23 0-52.7-42.8-95.4-95.6-95.4s-95.6 42.7-95.6 95.4c0 26.5 8.5 48.8 29.1 68.9-3.3-1.6-23-3.5-39.7 8.2-7.4-2.8-15.5-4.4-23.9-4.4-28.1 0-52.2 17.1-62.4 41.4-8.1 5.7-13.5 15.1-13.5 25.8v.4c-14.8 1-27.5 9.5-34.3 21.8-8-21.2-28.5-36.3-52.5-36.3-17.3 0-32.7 7.8-43 20-9.2-23.4-32.1-40-58.8-40-28.9 0-53.3 19.4-60.8 45.8-9.1-7.2-20.6-11.5-33.2-11.5-21.4 0-39.9 12.5-48.6 30.6-6.6-7.8-16.5-12.8-27.5-12.8-7.3 0-14 2.2-19.7 5.9-7.1-22-27.8-38-52.2-38-12.7 0-24.3 4.3-33.6 11.5-6.7-5.3-14.7-9.1-23.4-10.8-11.6-10.6-26.3-17.8-42.7-20 2.5-5 3.9-10.6 3.9-16.6 0-21-17.1-38-38.1-38-14.9 0-27.7 8.5-34 20.9-1.4-.3-2.9-.4-4.4-.4-7.6-39.4-38.4-68.3-92.2-68.5 1.8-7.4 2.8-15.1 2.8-23 0-36.7-30.7-84.5-69.7-84.5V704h1920l.1-358.3c-16.6 14.5-27 35.7-27 59.4z" style="fill:#c6e1e5"/><path class="st2" d="M1042.3 534.8c24.5-17.5 40.8-46.4 40.8-79.1 0-53.5-43.5-97-97.1-97-53.6 0-97.1 43.5-97.1 97 0 7.2.8 14.4 2.4 21.1.2.7.3 1.5.5 2.2-19.1.1-35.4 3.7-48.7 10.2-9.1-3.5-19.1-5.3-29.3-5.3-34.5 0-64.1 21.1-76.7 50.9-10.1 7-16.7 18.5-16.7 31.7v.5c-18.1 1.3-33.7 11.7-42.1 26.8-9.8-26-35-44.5-64.5-44.5-21.2 0-40.1 9.5-52.8 24.6-11.3-28.8-39.4-49.1-72.2-49.1-35.5 0-65.4 23.8-74.6 56.3-11.2-8.8-25.5-14.1-40.9-14.1-26.3 0-49 15.4-59.7 37.6-8.1-9.5-20.2-15.7-33.7-15.7-8.9 0-17.3 2.7-24.2 7.2-8.7-27.1-34-46.7-64.1-46.7-15.5 0-29.9 5.2-41.3 14.1-8.3-6.5-18-11.1-28.8-13.2-14.2-13-32.3-21.9-52.4-24.6 3-6.2 4.7-13.1 4.7-20.4 0-25.8-21-46.7-46.7-46.7-8 0-15.4 2-22 5.5v240h1033.2c18.9-24.1 30.1-54.4 30.1-87.3-.1-30.6-9.8-58.8-26.1-82z"/><path class="st2" d="M1522.9 612.2c13.3-9.5 22.1-25.2 22.1-42.9 0-29-23.6-52.6-52.7-52.6s-52.7 23.6-52.7 52.6c0 3.9.5 7.8 1.3 11.4l.3 1.2c-10.3.1-19.2 2-26.4 5.5-4.9-1.9-10.3-2.9-15.9-2.9-18.7 0-34.8 11.4-41.6 27.6-5.5 3.8-9 10.1-9 17.2v.3c-9.8.7-18.3 6.4-22.9 14.6-5.3-14.1-19-24.2-35-24.2-11.5 0-21.8 5.2-28.7 13.4-6.1-15.6-21.4-26.7-39.2-26.7-19.3 0-35.5 12.9-40.5 30.5-6.1-4.8-13.8-7.7-22.2-7.7-14.3 0-26.6 8.4-32.4 20.4-4.4-5.2-11-8.5-18.3-8.5-4.8 0-9.4 1.5-13.1 3.9-4.7-14.7-18.5-25.4-34.8-25.4-8.4 0-16.2 2.8-22.4 7.7-4.5-3.5-9.8-6-15.6-7.2-7.7-7-17.5-11.9-28.4-13.4 1.6-3.4 2.6-7.1 2.6-11.1 0-14-11.4-25.4-25.4-25.4-4.3 0-8.4 1.1-11.9 3V704h560.6c10.2-13.1 16.3-29.5 16.3-47.4 0-16.5-5.2-31.8-14.1-44.4z"/><path d="M1920 444c-16.6-8.5-37.1-8.7-54.4 1.3-27.2 15.7-36.5 50.4-20.8 77.6 1.4 2.5 3 4.8 4.8 7-10.4-4.6-22.8-4.4-33.4 1.7-9.8 5.6-16 15.1-17.8 25.3-14.4-15.9-38.5-20.2-57.9-9-22.3 12.9-30 41.4-17.1 63.7.6 1 1.1 1.9 1.8 2.8-7.3-2-15.3-1.2-22.4 2.8-9 5.2-14.2 14.6-14.5 24.3-12.3-7.3-28.2-8-41.5-.3-6.9 4-12.2 9.6-15.6 16.1-20.6-28.3-59.7-37.1-90.8-19.2-8.1 4.7-14.9 10.7-20.3 17.7-.2-.5-.4-.9-.7-1.4-8-13.9-25.8-18.7-39.7-10.6-13.9 8-18.7 25.8-10.6 39.7 3.5 6 8.8 10.3 14.8 12.6-.4 2.6-.5 5.2-.2 7.8H1920V444z" style="opacity:.47;fill:#eee"/><path d="M1214.1 548.5c-58.3-35.9-134.6-17.9-170.5 40.4-5.4 8.7-9.5 18-12.5 27.3-64-39.2-121.4-23.5-156.1 22.2 7.3-21.4-.7-45.6-20.8-58.1-23.2-14.3-53.7-7.1-68 16.1-4.1 6.6-6.3 13.7-7 21-29.6-13.1-63-11.2-90.3 3.6-3-20.1-14.4-38.7-33-50.2-27-16.7-60.7-13-83.6 6.5-3.7-8-9.7-15-17.8-20-12.1-7.5-26.5-8.7-39.1-4.6 2.7-26-9.1-52.4-32.8-66.9-13.8-8.5-29.5-11.6-44.5-9.9 9.7-34.4-3.9-72.3-35.8-92.1-29.5-18.2-66.1-15.4-92.3 4.2-3-20.6-14.7-39.6-33.8-51.4-26.5-16.4-59.5-13.6-82.8 4.3.9-19.5-8.4-38.7-26.2-49.7-2-1.2-4-2.3-6.1-3.2.1-.1.2-.3.3-.4 25.5-41.3 12.6-95.4-28.7-120.9-25.5-15.6-55.8-16.9-81.3-5.7 7.6-23.3 1.6-49.1-15.6-66.5 6.9-3.9 12.9-9.6 17.5-16.9 14.2-23.1 7-53.3-15.9-67.4C25.7 3.3 12.3 1.6 0 4.6V704h1262.5c24.5-55.8 4.8-122.6-48.4-155.5z" style="fill:#dae8ea"/></g></svg>