<?xml version="1.0" encoding="utf-8"?>
<svg viewBox="57.286 57.473 333.465 301.556" xmlns="http://www.w3.org/2000/svg" xmlns:xlink="http://www.w3.org/1999/xlink" xmlns:bx="https://boxy-svg.com">
  <defs>
    <linearGradient id="gradient-1" bx:pinned="true">
      <title>russia</title>
      <stop offset="0.141" style="stop-color: rgb(255, 255, 255);"/>
      <stop offset="0.384" style="stop-color: rgb(0, 0, 255);"/>
      <stop offset="0.703" style="stop-color: rgb(255, 0, 0);"/>
    </linearGradient>
    <marker id="marker-0" viewBox="0 0 100 100" overflow="visible" orient="auto" refX="50" refY="50" bx:pinned="true">
      <rect x="23.149" y="10.811" width="57.932" height="59.107" style="fill: rgb(216, 216, 216); stroke: rgb(0, 0, 0);"/>
    </marker>
    <linearGradient gradientUnits="userSpaceOnUse" x1="218.122" y1="-4.078" x2="218.122" y2="424.182" id="gradient-1-2" gradientTransform="matrix(0.956383, 0, 0, 0.916987, -23.384902, 66.464066)" xlink:href="#gradient-1"/>
    <linearGradient gradientUnits="userSpaceOnUse" x1="223.243" y1="17.614" x2="223.243" y2="409.721" id="gradient-0" gradientTransform="matrix(1, 0, 0, 1, -32.597374, 44.507954)">
      <stop offset="0" style="stop-color: rgba(0, 0, 0, 1)"/>
      <stop offset="1" style="stop-color: rgba(0, 0, 0, 1)"/>
    </linearGradient>
  </defs>
  <path d="M 361.455 62.725 C 356.364 62.725 351.048 63.76 345.985 65.971 C 309.434 81.971 282.34 87.402 259.748 87.402 C 211.782 87.402 183.904 62.965 128.635 62.956 C 109.147 62.959 85.708 66.458 57.23 74.805 L 57.23 343.642 C 82.829 335.984 105.124 332.827 125.107 332.827 C 184.008 332.827 225.022 357.204 283.979 357.204 C 294.261 357.204 305.088 356.461 316.605 354.715 C 333.681 352.126 352.274 347.334 372.855 339.492 C 383.695 335.703 390.014 326.883 390.014 317.45 L 390.014 86.295 C 390.014 71.239 376.656 62.725 361.455 62.725 Z" style="fill-rule: nonzero; paint-order: stroke markers; stroke-miterlimit: 26; stroke-linecap: round; fill: url(#gradient-1-2); stroke-linejoin: round; stroke-dashoffset: -50px; stroke: url(#gradient-0); stroke-width: 0px;"/>
</svg>